<?xml version="1.0" encoding="UTF-8" standalone="no"?>
<!DOCTYPE svg PUBLIC "-//W3C//DTD SVG 1.1//EN"
 "http://www.w3.org/Graphics/SVG/1.1/DTD/svg11.dtd">
<!-- Generated by graphviz version 2.44.0 (0)
 -->
<!-- Title: G Pages: 1 -->
<svg width="430pt" height="288pt"
 viewBox="0.00 0.00 429.94 288.00" xmlns="http://www.w3.org/2000/svg" xmlns:xlink="http://www.w3.org/1999/xlink">
<g id="graph0" class="graph" transform="scale(0.52 0.52) rotate(0) translate(4 555)">
<title>G</title>
<polygon fill="white" stroke="transparent" points="-4,4 -4,-555 830.5,-555 830.5,4 -4,4"/>
<g id="clust1" class="cluster">
<title>cluster_0</title>
<polygon fill="#000000" fill-opacity="0.058824" stroke="#000000" stroke-opacity="0.058824" points="9.38,-8 9.38,-543 817.12,-543 817.12,-8 9.38,-8"/>
<text text-anchor="middle" x="413.25" y="-527.8" font-family="Times-Roman" font-size="14.00">Data</text>
</g>
<g id="clust2" class="cluster">
<title>cluster_1</title>
<polygon fill="#000000" fill-opacity="0.058824" stroke="#000000" stroke-opacity="0.058824" points="18.76,-16 18.76,-512 807.74,-512 807.74,-16 18.76,-16"/>
<text text-anchor="middle" x="413.25" y="-496.8" font-family="Times-Roman" font-size="14.00">Aeson</text>
</g>
<g id="clust3" class="cluster">
<title>cluster_2</title>
<polygon fill="#000000" fill-opacity="0.058824" stroke="#000000" stroke-opacity="0.058824" points="260.26,-303 260.26,-378 647.13,-378 647.13,-303 260.26,-303"/>
<text text-anchor="middle" x="453.7" y="-362.8" font-family="Times-Roman" font-size="14.00">Encoding</text>
</g>
<g id="clust4" class="cluster">
<title>cluster_3</title>
<polygon fill="#000000" fill-opacity="0.058824" stroke="#000000" stroke-opacity="0.058824" points="682.3,-298 682.3,-481 798.36,-481 798.36,-298 682.3,-298"/>
<text text-anchor="middle" x="740.33" y="-465.8" font-family="Times-Roman" font-size="14.00">Internal</text>
</g>
<g id="clust5" class="cluster">
<title>cluster_4</title>
<polygon fill="#000000" fill-opacity="0.058824" stroke="#000000" stroke-opacity="0.058824" points="147.71,-24 147.71,-153 515.83,-153 515.83,-24 147.71,-24"/>
<text text-anchor="middle" x="331.77" y="-137.8" font-family="Times-Roman" font-size="14.00">Parser</text>
</g>
<g id="clust6" class="cluster">
<title>cluster_5</title>
<polygon fill="#000000" fill-opacity="0.058824" stroke="#000000" stroke-opacity="0.058824" points="28.14,-296 28.14,-371 121.92,-371 121.92,-296 28.14,-296"/>
<text text-anchor="middle" x="75.03" y="-355.8" font-family="Times-Roman" font-size="14.00">QQ</text>
</g>
<g id="clust7" class="cluster">
<title>cluster_6</title>
<polygon fill="#000000" fill-opacity="0.058824" stroke="#000000" stroke-opacity="0.058824" points="266.71,-161 266.71,-290 790.74,-290 790.74,-161 266.71,-161"/>
<text text-anchor="middle" x="528.73" y="-274.8" font-family="Times-Roman" font-size="14.00">Types</text>
</g>
<!-- u8 -->
<g id="node1" class="node">
<title>u8</title>
<polygon fill="#bbbbff" stroke="black" stroke-width="2" points="357.62,-347 276.62,-347 276.62,-311 357.62,-311 357.62,-347"/>
<text text-anchor="middle" x="317.12" y="-325.3" font-family="Times-Roman" font-size="14.00">Encoding</text>
</g>
<!-- u9 -->
<g id="node2" class="node">
<title>u9</title>
<polygon fill="#ffbbbb" stroke="black" stroke-width="0" points="492.12,-347 422.12,-347 422.12,-311 492.12,-311 492.12,-347"/>
<text text-anchor="middle" x="457.12" y="-325.3" font-family="Times-Roman" font-size="14.00">Internal</text>
</g>
<!-- u8&#45;&gt;u9 -->
<g id="edge6" class="edge">
<title>u8&#45;&gt;u9</title>
<path fill="none" stroke="black" d="M357.67,-329C374.42,-329 394.02,-329 411.31,-329"/>
<polygon fill="black" stroke="black" points="411.73,-332.5 421.73,-329 411.73,-325.5 411.73,-332.5"/>
</g>
<!-- u10 -->
<g id="node3" class="node">
<title>u10</title>
<polygon fill="#ffbbbb" stroke="black" stroke-width="0" points="632.12,-347 566.12,-347 566.12,-311 632.12,-311 632.12,-347"/>
<text text-anchor="middle" x="599.12" y="-325.3" font-family="Times-Roman" font-size="14.00">Builder</text>
</g>
<!-- u9&#45;&gt;u10 -->
<g id="edge7" class="edge">
<title>u9&#45;&gt;u10</title>
<path fill="none" stroke="black" d="M492.37,-329C511.4,-329 535.24,-329 555.47,-329"/>
<polygon fill="black" stroke="black" points="555.67,-332.5 565.67,-329 555.67,-325.5 555.67,-332.5"/>
</g>
<!-- u11 -->
<g id="node6" class="node">
<title>u11</title>
<polygon fill="#bbffff" stroke="black" stroke-width="0" points="767.12,-450 713.12,-450 713.12,-414 767.12,-414 767.12,-450"/>
<text text-anchor="middle" x="740.12" y="-428.3" font-family="Times-Roman" font-size="14.00">Time</text>
</g>
<!-- u10&#45;&gt;u11 -->
<g id="edge8" class="edge">
<title>u10&#45;&gt;u11</title>
<path fill="none" stroke="black" d="M619.38,-347.04C637.14,-363.21 664.6,-387.07 690.62,-405 694.88,-407.93 699.48,-410.82 704.09,-413.55"/>
<polygon fill="black" stroke="black" points="702.48,-416.66 712.9,-418.59 705.96,-410.59 702.48,-416.66"/>
</g>
<!-- u4 -->
<g id="node14" class="node">
<title>u4</title>
<polygon fill="#ffff77" stroke="black" stroke-width="0" points="352.12,-205 282.12,-205 282.12,-169 352.12,-169 352.12,-205"/>
<text text-anchor="middle" x="317.12" y="-183.3" font-family="Times-Roman" font-size="14.00">Internal</text>
</g>
<!-- u10&#45;&gt;u4 -->
<g id="edge9" class="edge">
<title>u10&#45;&gt;u4</title>
<path fill="none" stroke="black" d="M565.81,-318.71C520.58,-304.06 440.96,-277.26 414.62,-262 385.96,-245.4 383.99,-234.04 357.62,-214 356.42,-213.09 355.2,-212.17 353.95,-211.25"/>
<polygon fill="black" stroke="black" points="355.74,-208.23 345.57,-205.24 351.65,-213.91 355.74,-208.23"/>
</g>
<!-- u17 -->
<g id="node4" class="node">
<title>u17</title>
<polygon fill="#bbbbff" stroke="black" stroke-width="2" points="775.12,-342 705.12,-342 705.12,-306 775.12,-306 775.12,-342"/>
<text text-anchor="middle" x="740.12" y="-320.3" font-family="Times-Roman" font-size="14.00">Internal</text>
</g>
<!-- u1 -->
<g id="node13" class="node">
<title>u1</title>
<polygon fill="#ffff77" stroke="black" stroke-width="0" points="642.12,-205 556.12,-205 556.12,-169 642.12,-169 642.12,-205"/>
<text text-anchor="middle" x="599.12" y="-183.3" font-family="Times-Roman" font-size="14.00">FromJSON</text>
</g>
<!-- u17&#45;&gt;u1 -->
<g id="edge10" class="edge">
<title>u17&#45;&gt;u1</title>
<path fill="none" stroke="black" d="M705.22,-305.94C700.02,-302.37 694.94,-298.36 690.62,-294 661.35,-264.47 671.13,-243.79 642.12,-214 641.37,-213.22 640.58,-212.46 639.78,-211.71"/>
<polygon fill="black" stroke="black" points="641.99,-208.99 632.07,-205.28 637.51,-214.37 641.99,-208.99"/>
</g>
<!-- u2 -->
<g id="node5" class="node">
<title>u2</title>
<polygon fill="#bbffff" stroke="black" stroke-width="0" points="781.62,-396 698.62,-396 698.62,-360 781.62,-360 781.62,-396"/>
<text text-anchor="middle" x="740.12" y="-374.3" font-family="Times-Roman" font-size="14.00">Functions</text>
</g>
<!-- u18 -->
<g id="node7" class="node">
<title>u18</title>
<polygon fill="#bbbbff" stroke="black" stroke-width="2" points="222.12,-68 162.12,-68 162.12,-32 222.12,-32 222.12,-68"/>
<text text-anchor="middle" x="192.12" y="-46.3" font-family="Times-Roman" font-size="14.00">Parser</text>
</g>
<!-- u3 -->
<g id="node8" class="node">
<title>u3</title>
<polygon fill="#ffbbff" stroke="black" stroke-width="0" points="352.12,-116 282.12,-116 282.12,-80 352.12,-80 352.12,-116"/>
<text text-anchor="middle" x="317.12" y="-94.3" font-family="Times-Roman" font-size="14.00">Internal</text>
</g>
<!-- u18&#45;&gt;u3 -->
<g id="edge11" class="edge">
<title>u18&#45;&gt;u3</title>
<path fill="none" stroke="black" d="M222.27,-61.38C237.24,-67.22 255.77,-74.45 272.41,-80.94"/>
<polygon fill="black" stroke="black" points="271.36,-84.29 281.95,-84.66 273.9,-77.77 271.36,-84.29"/>
</g>
<!-- u5 -->
<g id="node9" class="node">
<title>u5</title>
<polygon fill="#ffbbff" stroke="black" stroke-width="0" points="499.62,-111 414.62,-111 414.62,-75 499.62,-75 499.62,-111"/>
<text text-anchor="middle" x="457.12" y="-89.3" font-family="Times-Roman" font-size="14.00">Unescape</text>
</g>
<!-- u3&#45;&gt;u5 -->
<g id="edge12" class="edge">
<title>u3&#45;&gt;u5</title>
<path fill="none" stroke="black" d="M352.23,-96.76C367.98,-96.19 387.02,-95.5 404.47,-94.87"/>
<polygon fill="black" stroke="black" points="404.66,-98.37 414.52,-94.51 404.4,-91.37 404.66,-98.37"/>
</g>
<!-- u3&#45;&gt;u4 -->
<g id="edge13" class="edge">
<title>u3&#45;&gt;u4</title>
<path fill="none" stroke="black" d="M317.12,-116.08C317.12,-130.27 317.12,-144.46 317.12,-158.66"/>
<polygon fill="black" stroke="black" points="313.62,-158.99 317.12,-168.99 320.62,-158.99 313.62,-158.99"/>
</g>
<!-- u7 -->
<g id="node10" class="node">
<title>u7</title>
<polygon fill="#ffbbff" stroke="black" stroke-width="0" points="219.12,-122 165.12,-122 165.12,-86 219.12,-86 219.12,-122"/>
<text text-anchor="middle" x="192.12" y="-100.3" font-family="Times-Roman" font-size="14.00">Time</text>
</g>
<!-- u7&#45;&gt;u4 -->
<g id="edge14" class="edge">
<title>u7&#45;&gt;u4</title>
<path fill="none" stroke="black" d="M218.42,-122.22C232.98,-132.59 251.69,-145.72 268.62,-157 271.86,-159.16 275.25,-161.37 278.65,-163.58"/>
<polygon fill="black" stroke="black" points="276.78,-166.53 287.09,-168.98 280.56,-160.64 276.78,-166.53"/>
</g>
<!-- u19 -->
<g id="node11" class="node">
<title>u19</title>
<polygon fill="#77ff77" stroke="black" stroke-width="0" points="107.12,-340 43.12,-340 43.12,-304 107.12,-304 107.12,-340"/>
<text text-anchor="middle" x="75.12" y="-318.3" font-family="Times-Roman" font-size="14.00">Simple</text>
</g>
<!-- u0 -->
<g id="node18" class="node">
<title>u0</title>
<polygon fill="#ffffbb" stroke="black" stroke-width="2" points="221.62,-286 162.62,-286 162.62,-250 221.62,-250 221.62,-286"/>
<text text-anchor="middle" x="192.12" y="-264.3" font-family="Times-Roman" font-size="14.00">Aeson</text>
</g>
<!-- u19&#45;&gt;u0 -->
<g id="edge15" class="edge">
<title>u19&#45;&gt;u0</title>
<path fill="none" stroke="black" d="M107.24,-307.39C121.32,-300.78 138.09,-292.9 152.92,-285.94"/>
<polygon fill="black" stroke="black" points="154.78,-288.93 162.34,-281.51 151.8,-282.6 154.78,-288.93"/>
</g>
<!-- u12 -->
<g id="node12" class="node">
<title>u12</title>
<polygon fill="#bbbbff" stroke="black" stroke-width="2" points="345.12,-259 289.12,-259 289.12,-223 345.12,-223 345.12,-259"/>
<text text-anchor="middle" x="317.12" y="-237.3" font-family="Times-Roman" font-size="14.00">Types</text>
</g>
<!-- u13 -->
<g id="node16" class="node">
<title>u13</title>
<polygon fill="#ffff77" stroke="black" stroke-width="0" points="484.12,-253 430.12,-253 430.12,-217 484.12,-217 484.12,-253"/>
<text text-anchor="middle" x="457.12" y="-231.3" font-family="Times-Roman" font-size="14.00">Class</text>
</g>
<!-- u12&#45;&gt;u13 -->
<g id="edge16" class="edge">
<title>u12&#45;&gt;u13</title>
<path fill="none" stroke="black" d="M345.39,-239.81C366.64,-238.89 396.35,-237.6 419.65,-236.59"/>
<polygon fill="black" stroke="black" points="420.01,-240.07 429.85,-236.14 419.71,-233.08 420.01,-240.07"/>
</g>
<!-- u1&#45;&gt;u2 -->
<g id="edge17" class="edge">
<title>u1&#45;&gt;u2</title>
<path fill="none" stroke="black" d="M633.13,-205.05C636.45,-207.75 639.54,-210.74 642.12,-214 682.22,-264.63 648.93,-301.66 690.62,-351 691.22,-351.71 691.84,-352.4 692.49,-353.08"/>
<polygon fill="black" stroke="black" points="690.25,-355.78 700.06,-359.78 694.89,-350.53 690.25,-355.78"/>
</g>
<!-- u1&#45;&gt;u3 -->
<g id="edge18" class="edge">
<title>u1&#45;&gt;u3</title>
<path fill="none" stroke="black" d="M563.1,-168.84C546.58,-160.77 526.41,-151.62 507.62,-145 481.11,-135.66 409.43,-118.7 362.22,-107.91"/>
<polygon fill="black" stroke="black" points="362.78,-104.45 352.25,-105.64 361.23,-111.27 362.78,-104.45"/>
</g>
<!-- u1&#45;&gt;u7 -->
<g id="edge19" class="edge">
<title>u1&#45;&gt;u7</title>
<path fill="none" stroke="black" d="M556.01,-180.26C493.13,-169.93 371.1,-148.85 268.62,-125 255.55,-121.96 241.35,-118.14 228.82,-114.6"/>
<polygon fill="black" stroke="black" points="229.76,-111.23 219.19,-111.84 227.83,-117.96 229.76,-111.23"/>
</g>
<!-- u6 -->
<g id="node15" class="node">
<title>u6</title>
<polygon fill="#ffff77" stroke="black" stroke-width="0" points="775.12,-232 705.12,-232 705.12,-196 775.12,-196 775.12,-232"/>
<text text-anchor="middle" x="740.12" y="-210.3" font-family="Times-Roman" font-size="14.00">Generic</text>
</g>
<!-- u1&#45;&gt;u6 -->
<g id="edge20" class="edge">
<title>u1&#45;&gt;u6</title>
<path fill="none" stroke="black" d="M642.2,-195.17C658.88,-198.41 678.06,-202.14 694.94,-205.42"/>
<polygon fill="black" stroke="black" points="694.62,-208.92 705.1,-207.39 695.96,-202.05 694.62,-208.92"/>
</g>
<!-- u13&#45;&gt;u1 -->
<g id="edge21" class="edge">
<title>u13&#45;&gt;u1</title>
<path fill="none" stroke="black" d="M484.13,-226.08C501.61,-220.09 525.26,-211.98 546.48,-204.71"/>
<polygon fill="black" stroke="black" points="547.71,-207.98 556.03,-201.43 545.44,-201.36 547.71,-207.98"/>
</g>
<!-- u14 -->
<g id="node17" class="node">
<title>u14</title>
<polygon fill="#ffff77" stroke="black" stroke-width="0" points="632.12,-259 566.12,-259 566.12,-223 632.12,-223 632.12,-259"/>
<text text-anchor="middle" x="599.12" y="-237.3" font-family="Times-Roman" font-size="14.00">ToJSON</text>
</g>
<!-- u13&#45;&gt;u14 -->
<g id="edge22" class="edge">
<title>u13&#45;&gt;u14</title>
<path fill="none" stroke="black" d="M484.13,-236.11C504.31,-236.98 532.7,-238.2 556.09,-239.2"/>
<polygon fill="black" stroke="black" points="555.97,-242.7 566.11,-239.63 556.27,-235.7 555.97,-242.7"/>
</g>
<!-- u14&#45;&gt;u8 -->
<g id="edge23" class="edge">
<title>u14&#45;&gt;u8</title>
<path fill="none" stroke="black" d="M565.76,-251.17C517.09,-266.47 424.68,-295.51 367.54,-313.47"/>
<polygon fill="black" stroke="black" points="366.14,-310.24 357.64,-316.58 368.23,-316.92 366.14,-310.24"/>
</g>
<!-- u14&#45;&gt;u2 -->
<g id="edge24" class="edge">
<title>u14&#45;&gt;u2</title>
<path fill="none" stroke="black" d="M613.76,-259.2C634.47,-286.52 673.24,-336.51 690.62,-351 691.8,-351.98 693.02,-352.95 694.27,-353.9"/>
<polygon fill="black" stroke="black" points="692.67,-357.04 702.89,-359.84 696.65,-351.28 692.67,-357.04"/>
</g>
<!-- u14&#45;&gt;u6 -->
<g id="edge25" class="edge">
<title>u14&#45;&gt;u6</title>
<path fill="none" stroke="black" d="M632.36,-234.74C651.02,-231.11 674.77,-226.5 695.13,-222.54"/>
<polygon fill="black" stroke="black" points="695.97,-225.95 705.12,-220.6 694.63,-219.08 695.97,-225.95"/>
</g>
<!-- u0&#45;&gt;u12 -->
<g id="edge1" class="edge">
<title>u0&#45;&gt;u12</title>
<path fill="none" stroke="black" d="M221.65,-261.74C238.77,-257.98 260.74,-253.16 279.18,-249.11"/>
<polygon fill="black" stroke="black" points="280,-252.51 289.01,-246.95 278.5,-245.68 280,-252.51"/>
</g>
<!-- u15 -->
<g id="node19" class="node">
<title>u15</title>
<polygon fill="#bbbbff" stroke="black" stroke-width="0" points="109.12,-232 41.12,-232 41.12,-196 109.12,-196 109.12,-232"/>
<text text-anchor="middle" x="75.12" y="-210.3" font-family="Times-Roman" font-size="14.00">Encode</text>
</g>
<!-- u15&#45;&gt;u0 -->
<g id="edge2" class="edge">
<title>u15&#45;&gt;u0</title>
<path fill="none" stroke="black" d="M109.38,-229.62C123.07,-236.05 139.01,-243.53 153.15,-250.17"/>
<polygon fill="black" stroke="black" points="152.07,-253.53 162.61,-254.61 155.04,-247.19 152.07,-253.53"/>
</g>
<!-- u16 -->
<g id="node20" class="node">
<title>u16</title>
<polygon fill="#bbbbff" stroke="black" stroke-width="0" points="219.12,-232 165.12,-232 165.12,-196 219.12,-196 219.12,-232"/>
<text text-anchor="middle" x="192.12" y="-210.3" font-family="Times-Roman" font-size="14.00">Text</text>
</g>
<!-- u15&#45;&gt;u16 -->
<g id="edge3" class="edge">
<title>u15&#45;&gt;u16</title>
<path fill="none" stroke="black" d="M109.38,-214C123.58,-214 140.2,-214 154.72,-214"/>
<polygon fill="black" stroke="black" points="154.87,-217.5 164.87,-214 154.87,-210.5 154.87,-217.5"/>
</g>
<!-- u16&#45;&gt;u12 -->
<g id="edge4" class="edge">
<title>u16&#45;&gt;u12</title>
<path fill="none" stroke="black" d="M219.21,-219.73C236.54,-223.53 259.57,-228.59 278.83,-232.81"/>
<polygon fill="black" stroke="black" points="278.28,-236.28 288.79,-235 279.78,-229.44 278.28,-236.28"/>
</g>
<!-- u20 -->
<g id="node21" class="node">
<title>u20</title>
<polygon fill="#bbbbff" stroke="black" stroke-width="0" points="102.12,-286 48.12,-286 48.12,-250 102.12,-250 102.12,-286"/>
<text text-anchor="middle" x="75.12" y="-264.3" font-family="Times-Roman" font-size="14.00">TH</text>
</g>
<!-- u20&#45;&gt;u0 -->
<g id="edge5" class="edge">
<title>u20&#45;&gt;u0</title>
<path fill="none" stroke="black" d="M102.22,-268C116.89,-268 135.51,-268 151.91,-268"/>
<polygon fill="black" stroke="black" points="152.3,-271.5 162.3,-268 152.3,-264.5 152.3,-271.5"/>
</g>
</g>
</svg>
